<?xml version="1.0" standalone="no"?>
<!DOCTYPE svg PUBLIC "-//W3C//DTD SVG 20010904//EN"
 "http://www.w3.org/TR/2001/REC-SVG-20010904/DTD/svg10.dtd">
<svg version="1.0" xmlns="http://www.w3.org/2000/svg"
 width="300.000000pt" height="90.000000pt" viewBox="0 0 300.000000 90.000000"
 preserveAspectRatio="xMidYMid meet">
<metadata>
Created by potrace 1.10, written by Peter Selinger 2001-2011
</metadata>
<g transform="translate(0.000000,90.000000) scale(0.100000,-0.100000)"
fill="#000000" stroke="none">
<path d="M100 480 l0 -210 50 0 c55 0 57 3 51 92 -3 43 9 52 53 44 27 -5 36
-15 64 -71 l32 -65 50 0 c27 0 50 2 50 4 0 2 -15 37 -34 78 l-34 75 28 22 c35
25 52 82 41 131 -21 95 -52 110 -226 110 l-125 0 0 -210z m238 118 c18 -18 15
-83 -4 -99 -10 -8 -41 -14 -73 -14 l-56 0 -3 49 c-2 27 -1 55 2 62 7 18 117
19 134 2z"/>
<path d="M990 480 l0 -210 50 0 49 0 3 63 3 62 80 5 c44 3 90 11 103 18 86 49
81 210 -8 254 -28 14 -61 18 -157 18 l-123 0 0 -210z m234 108 c23 -32 20 -65
-9 -94 -21 -21 -33 -25 -73 -22 l-47 3 -3 68 -3 67 60 0 c51 0 62 -3 75 -22z"/>
<path d="M1730 480 l0 -210 150 0 150 0 0 40 0 40 -100 0 -100 0 0 170 0 170
-50 0 -50 0 0 -210z"/>
<path d="M2409 663 c-6 -15 -39 -102 -74 -193 -35 -91 -66 -173 -70 -182 -6
-16 -1 -18 47 -18 l54 0 18 50 18 50 73 0 73 0 18 -50 18 -50 54 0 c48 0 53 2
47 18 -4 9 -27 69 -51 132 -24 63 -57 149 -72 190 l-29 75 -57 3 c-53 3 -57 2
-67 -25z m96 -146 c14 -37 25 -70 25 -72 0 -3 -25 -5 -55 -5 -30 0 -55 3 -55
7 0 12 53 143 56 140 2 -2 15 -33 29 -70z"/>
<path d="M2730 480 l0 -210 50 0 50 0 0 210 0 210 -50 0 -50 0 0 -210z"/>
<path d="M697 628 c-13 -24 -63 -110 -111 -192 -47 -82 -85 -151 -83 -153 2
-2 103 -2 224 -1 l221 3 -107 187 c-59 103 -110 190 -113 194 -4 3 -17 -14
-31 -38z m78 -180 c26 -46 50 -86 52 -90 2 -5 -43 -8 -102 -8 l-106 0 12 23
c25 47 90 157 94 157 2 0 24 -37 50 -82z"/>
<path d="M1438 573 c-13 -3 -18 -14 -18 -37 l0 -32 58 10 c63 10 117 -5 117
-34 0 -11 -18 -16 -75 -21 -91 -7 -107 -13 -125 -50 -22 -42 -18 -75 13 -110
25 -29 34 -32 84 -31 31 0 66 6 78 12 17 9 24 9 30 0 4 -7 25 -10 51 -8 l44 3
-2 117 c-1 65 -7 127 -13 139 -18 32 -71 49 -152 48 -40 -1 -81 -3 -90 -6z
m140 -173 c28 0 30 -30 3 -54 -25 -23 -90 -18 -105 7 -9 15 -6 22 13 38 15 12
33 18 45 15 12 -3 31 -6 44 -6z"/>
</g>
</svg>
